<svg width="20" height="20" viewBox="0 0 20 20" fill="none" xmlns="http://www.w3.org/2000/svg">
<g clip-path="url(#clip0_8759_498)">
<path d="M9.99983 19C7.70758 18.9985 5.50229 18.1224 3.83395 16.5504C2.1656 14.9784 1.15994 12.8291 1.02215 10.541C0.884356 8.25292 1.62483 5.99846 3.09247 4.23765C4.56012 2.47685 6.64433 1.3424 8.91983 1.06579C10.3038 0.894364 11.7087 1.04967 13.0218 1.51925C13.1074 1.54994 13.1862 1.5972 13.2537 1.65834C13.3211 1.71948 13.3758 1.7933 13.4147 1.87558C13.4536 1.95787 13.4759 2.04701 13.4803 2.13792C13.4848 2.22883 13.4713 2.31972 13.4406 2.40541C13.4099 2.49109 13.3627 2.5699 13.3015 2.63732C13.2404 2.70474 13.1666 2.75946 13.0843 2.79836C13.002 2.83725 12.9128 2.85956 12.8219 2.864C12.731 2.86844 12.6401 2.85494 12.5544 2.82425C10.8534 2.21903 8.99275 2.23784 7.30434 2.87732C5.61592 3.5168 4.20962 4.73535 3.33634 6.31556C2.46307 7.89578 2.17962 9.73486 2.53659 11.5047C2.89355 13.2745 3.86769 14.8599 5.28522 15.9781C6.47152 16.9083 7.90721 17.4654 9.41042 17.579C10.9136 17.6926 12.4167 17.3575 13.7293 16.6161C15.0419 15.8747 16.105 14.7605 16.7838 13.4144C17.4626 12.0684 17.7267 10.5512 17.5425 9.05502C17.5316 8.96411 17.5387 8.87193 17.5634 8.78376C17.5881 8.69559 17.63 8.61316 17.6866 8.54115C17.7431 8.46915 17.8133 8.409 17.8931 8.36413C17.973 8.31926 18.0608 8.29055 18.1518 8.27964C18.2427 8.26873 18.3348 8.27583 18.423 8.30054C18.5112 8.32526 18.5936 8.36709 18.6656 8.42367C18.7376 8.48024 18.7978 8.55044 18.8426 8.63026C18.8875 8.71008 18.9162 8.79795 18.9271 8.88887C19.0846 10.1545 18.9713 11.4391 18.5947 12.6576C18.2181 13.8761 17.5868 15.0007 16.7426 15.9568C15.8985 16.9128 14.8608 17.6786 13.6984 18.2032C12.5359 18.7279 11.2752 18.9995 9.99983 19Z" fill="#304FFE"/>
<path d="M9.99992 16.1823C9.81631 16.1823 9.64022 16.1094 9.51039 15.9795C9.38056 15.8497 9.30762 15.6736 9.30762 15.49V8.84386C9.30762 8.66025 9.38056 8.48416 9.51039 8.35432C9.64022 8.22449 9.81631 8.15155 9.99992 8.15155C10.1835 8.15155 10.3596 8.22449 10.4895 8.35432C10.6193 8.48416 10.6922 8.66025 10.6922 8.84386V15.49C10.6922 15.6736 10.6193 15.8497 10.4895 15.9795C10.3596 16.1094 10.1835 16.1823 9.99992 16.1823Z" fill="#304FFE"/>
<path d="M9.99997 7.32769C10.4913 7.32769 10.8896 6.9294 10.8896 6.43808C10.8896 5.94676 10.4913 5.54846 9.99997 5.54846C9.50865 5.54846 9.11035 5.94676 9.11035 6.43808C9.11035 6.9294 9.50865 7.32769 9.99997 7.32769Z" fill="#304FFE"/>
</g>
<defs>
<clipPath id="clip0_8759_498">
<rect width="18" height="18" fill="white" transform="translate(1 1)"/>
</clipPath>
</defs>
</svg>
