<svg width="92" height="92" viewBox="0 0 92 92" fill="none" xmlns="http://www.w3.org/2000/svg">
<path d="M11.5 38.3333H80.5M26.8333 11.5V19.1667M65.1667 11.5V19.1667M23.7667 80.5H68.2333C72.527 80.5 74.6741 80.5 76.314 79.6643C77.7565 78.9295 78.9295 77.7565 79.6643 76.314C80.5 74.6741 80.5 72.527 80.5 68.2333V31.4333C80.5 27.1396 80.5 24.9927 79.6643 23.3527C78.9295 21.9101 77.7565 20.7373 76.314 20.0023C74.6741 19.1667 72.527 19.1667 68.2333 19.1667H23.7667C19.4729 19.1667 17.3261 19.1667 15.6861 20.0023C14.2435 20.7373 13.0706 21.9101 12.3356 23.3527C11.5 24.9927 11.5 27.1396 11.5 31.4333V68.2333C11.5 72.527 11.5 74.6741 12.3356 76.314C13.0706 77.7565 14.2435 78.9295 15.6861 79.6643C17.3261 80.5 19.4729 80.5 23.7667 80.5Z" stroke="#1A237E" stroke-width="9" stroke-linecap="round" stroke-linejoin="round"/>
</svg>
