<svg width="25" height="25" viewBox="0 0 25 25" fill="none" xmlns="http://www.w3.org/2000/svg">
<path d="M17.3091 3.20654C17.5717 2.9439 17.8835 2.73556 18.2267 2.59341C18.5699 2.45127 18.9376 2.37811 19.3091 2.37811C19.6805 2.37811 20.0483 2.45127 20.3915 2.59341C20.7346 2.73556 21.0464 2.9439 21.3091 3.20654C21.5717 3.46918 21.7801 3.78099 21.9222 4.12415C22.0644 4.46731 22.1375 4.83511 22.1375 5.20654C22.1375 5.57797 22.0644 5.94577 21.9222 6.28893C21.7801 6.63209 21.5717 6.9439 21.3091 7.20654L7.80908 20.7065L2.30908 22.2065L3.80908 16.7065L17.3091 3.20654Z" stroke="#263238" stroke-width="2" stroke-linecap="round" stroke-linejoin="round"/>
</svg>
