<svg width="20" height="20" viewBox="0 0 20 20" fill="none" xmlns="http://www.w3.org/2000/svg">
<path d="M18.3332 11.6666V9.99998C18.3332 6.85728 18.3332 5.28594 17.3568 4.30962C16.3806 3.33331 14.8092 3.33331 11.6665 3.33331H8.33317C5.19047 3.33331 3.61913 3.33331 2.64281 4.30962C1.6665 5.28594 1.6665 6.85728 1.6665 9.99998V11.6666C1.6665 14.8093 1.6665 16.3807 2.64281 17.357C3.61913 18.3333 5.19047 18.3333 8.33317 18.3333H11.6665" stroke="#304FFE" stroke-width="2" stroke-linecap="round"/>
<path d="M5.8335 3.33331V2.08331" stroke="#304FFE" stroke-width="2" stroke-linecap="round"/>
<path d="M14.1665 3.33331V2.08331" stroke="#304FFE" stroke-width="2" stroke-linecap="round"/>
<path d="M15 17.5C16.3807 17.5 17.5 16.3807 17.5 15C17.5 13.6193 16.3807 12.5 15 12.5C13.6193 12.5 12.5 13.6193 12.5 15C12.5 16.3807 13.6193 17.5 15 17.5Z" stroke="#304FFE" stroke-width="2"/>
<path d="M17.0835 17.0833L18.3335 18.3333" stroke="#304FFE" stroke-width="2" stroke-linecap="round"/>
<path d="M2.0835 7.5H17.9168" stroke="#304FFE" stroke-width="2" stroke-linecap="round"/>
</svg>
