<svg width="20" height="20" viewBox="0 0 20 20" fill="none" xmlns="http://www.w3.org/2000/svg">
<g clip-path="url(#clip0_8759_478)">
<path d="M7.5 13.3333C8.20865 13.8586 9.0705 14.1666 10 14.1666C10.9295 14.1666 11.7913 13.8586 12.5 13.3333" stroke="#304FFE" stroke-width="2" stroke-linecap="round"/>
<path d="M18.3332 10.1699V11.4375C18.3332 14.6882 18.3332 16.3136 17.3568 17.3234C16.3806 18.3334 14.8092 18.3334 11.6665 18.3334H8.33317C5.19047 18.3334 3.61913 18.3334 2.64281 17.3234C1.6665 16.3136 1.6665 14.6882 1.6665 11.4375V10.1699C1.6665 8.26293 1.6665 7.30942 2.09917 6.51897C2.53184 5.72853 3.3223 5.23794 4.90319 4.2568L6.56986 3.22241C8.24099 2.18526 9.07659 1.66669 9.99984 1.66669C10.9231 1.66669 11.7587 2.18526 13.4298 3.22241L15.0965 4.25679C16.6774 5.23794 17.4678 5.72853 17.9005 6.51897" stroke="#304FFE" stroke-width="2" stroke-linecap="round"/>
</g>
<defs>
<clipPath id="clip0_8759_478">
<rect width="20" height="20" fill="white"/>
</clipPath>
</defs>
</svg>
