<svg width="94" height="94" viewBox="0 0 94 94" fill="none" xmlns="http://www.w3.org/2000/svg">
<path d="M61.375 36.075C51.6 36.075 42.1125 34.925 33.775 32.625C33.2 36.3625 32.625 40.3875 32.625 44.4125C32.625 69.7125 45.5625 90.125 61.375 90.125C77.1875 90.125 90.125 69.7125 90.125 44.4125C90.125 40.3875 89.8375 36.3625 88.975 32.625C80.6375 34.925 71.15 36.075 61.375 36.075Z" stroke="#1A237E" stroke-width="6" stroke-miterlimit="10" stroke-linecap="round" stroke-linejoin="round"/>
<path d="M61.375 70.2875C57.0625 70.2875 53.0375 69.1375 49.875 67.125C50.45 73.45 55.3375 78.625 61.375 78.625C67.4125 78.625 72.3 73.45 72.875 67.125C69.7125 69.1375 65.6875 70.2875 61.375 70.2875Z" stroke="#1A237E" stroke-width="6" stroke-miterlimit="10" stroke-linecap="round" stroke-linejoin="round"/>
<path d="M44.125 58.5C44.125 55.3375 46.7125 52.75 49.875 52.75C53.0375 52.75 55.625 55.3375 55.625 58.5" stroke="#1A237E" stroke-width="6" stroke-miterlimit="10" stroke-linecap="round" stroke-linejoin="round"/>
<path d="M67.125 58.5C67.125 55.3375 69.7125 52.75 72.875 52.75C76.0375 52.75 78.625 55.3375 78.625 58.5" stroke="#1A237E" stroke-width="6" stroke-miterlimit="10" stroke-linecap="round" stroke-linejoin="round"/>
<path d="M58.5 36.075C60.5125 30.0375 61.375 23.1375 61.375 15.95C61.375 11.925 61.0875 7.9 60.225 4.1625C51.6 6.4625 42.4 7.6125 32.625 7.6125C22.85 7.6125 13.3625 6.175 5.025 3.875C4.1625 7.6125 3.875 11.6375 3.875 15.6625C3.875 40.9625 16.8125 61.375 32.625 61.375C33.2 61.375 34.0625 61.375 34.6375 61.375" stroke="#1A237E" stroke-width="6" stroke-miterlimit="10" stroke-linecap="round" stroke-linejoin="round"/>
<path d="M32.625 43.8375C28.3125 43.8375 24.2875 44.9875 21.125 47C21.7 40.675 26.5875 35.5 32.625 35.5" stroke="#1A237E" stroke-width="6" stroke-miterlimit="10" stroke-linecap="round" stroke-linejoin="round"/>
<path d="M15.375 21.125C15.375 24.2875 17.9625 26.875 21.125 26.875C24.2875 26.875 26.875 24.2875 26.875 21.125" stroke="#1A237E" stroke-width="6" stroke-miterlimit="10" stroke-linecap="round" stroke-linejoin="round"/>
<path d="M38.375 21.125C38.375 24.2875 40.9625 26.875 44.125 26.875C47.2875 26.875 49.875 24.2875 49.875 21.125" stroke="#1A237E" stroke-width="6" stroke-miterlimit="10" stroke-linecap="round" stroke-linejoin="round"/>
</svg>
