<svg width="92" height="92" viewBox="0 0 92 92" fill="none" xmlns="http://www.w3.org/2000/svg">
<path d="M83.2199 14.8168C82.9988 13.2942 82.2915 11.8838 81.2035 10.7959C80.1155 9.70799 78.7051 9.00085 77.1825 8.77987C72.9124 8.14289 61.8185 7.81949 51.0822 18.5555L48.2795 21.3582H26.8616C25.9173 21.3557 24.9819 21.5404 24.1095 21.9018C23.2371 22.2631 22.445 22.7939 21.7791 23.4634L10.1562 35.0864C9.23638 36.0063 8.58345 37.1586 8.26707 38.4205C7.95068 39.6823 7.98271 41.0064 8.35973 42.2515C8.73675 43.4965 9.44464 44.616 10.4079 45.4903C11.3711 46.3647 12.5536 46.9612 13.8293 47.2163L27.6105 49.9727L42.0275 64.3898L44.7836 78.1706C45.0383 79.4466 45.6346 80.6295 46.509 81.593C47.3834 82.5566 48.5029 83.2647 49.7482 83.6418C50.9935 84.0188 52.3179 84.0507 53.5799 83.734C54.8419 83.4173 55.9942 82.7639 56.9139 81.8435L68.5371 70.2204C69.2065 69.5545 69.7371 68.7625 70.0984 67.8901C70.4596 67.0178 70.6443 66.0825 70.6418 65.1384V43.7203L73.4445 40.9176C84.1805 30.1815 83.8572 19.0884 83.2199 14.8168ZM27.4568 29.9832H39.6545L28.3191 41.3186L18.1544 39.2855L27.4568 29.9832ZM57.181 24.6543C64.3039 17.5314 71.2889 16.9197 74.8118 17.1882C75.0803 20.7138 74.4682 27.6962 67.3456 34.8188L46 56.1645L35.8354 45.9999L57.181 24.6543ZM62.0168 64.5432L52.7144 73.8455L50.6814 63.6809L62.0168 52.3453L62.0168 64.5432ZM36.2815 71.2904C29.7011 82.7081 14.1325 82.8394 13.4731 82.8394C12.3293 82.8393 11.2325 82.385 10.4237 81.5762C9.61496 80.7675 9.1606 79.6706 9.16057 78.5269C9.16057 77.8672 9.29183 62.2985 20.7094 55.7183C21.7003 55.1472 22.8776 54.9931 23.9821 55.29C25.0867 55.5868 26.0281 56.3103 26.5992 57.3013C27.1703 58.2922 27.3244 59.4695 27.0276 60.5741C26.7307 61.6786 26.0072 62.62 25.0162 63.1911C21.0593 65.4716 19.2659 70.0047 18.4541 73.5537C21.9977 72.7467 26.5194 70.9558 28.809 66.9837C29.0918 66.4931 29.4684 66.0629 29.9174 65.7178C30.3665 65.3727 30.8791 65.1195 31.426 64.9725C31.9728 64.8255 32.5433 64.7877 33.1049 64.8612C33.6664 64.9347 34.2079 65.118 34.6986 65.4008C35.1892 65.6836 35.6194 66.0603 35.9645 66.5093C36.3095 66.9583 36.5628 67.4709 36.7098 68.0178C36.8568 68.5647 36.8946 69.1352 36.8211 69.6967C36.7476 70.2582 36.5642 70.7998 36.2815 71.2904Z" fill="#1A237E"/>
</svg>
