<svg width="92" height="92" viewBox="0 0 92 92" fill="none" xmlns="http://www.w3.org/2000/svg">
<path fill-rule="evenodd" clip-rule="evenodd" d="M7.68145 40.5822C7.48669 38.3424 9.25223 36.4167 11.5004 36.4167H18.8192C20.9364 36.4167 22.6526 38.1329 22.6526 40.2501V76.6667C22.6526 78.7839 20.9364 80.5001 18.8192 80.5001H14.667C12.6787 80.5001 11.0204 78.9798 10.8481 76.9989L7.68145 40.5822Z" stroke="#1A237E" stroke-width="9" stroke-linecap="round" stroke-linejoin="round"/>
<path fill-rule="evenodd" clip-rule="evenodd" d="M34.1526 39.0512C34.1526 37.4494 35.1481 36.0158 36.5969 35.3329C39.7565 33.8434 45.1406 30.8465 47.5693 26.796C50.6994 21.5758 51.2897 12.144 51.3857 9.98358C51.3991 9.68115 51.3905 9.37835 51.4321 9.07849C51.9509 5.33696 59.1733 9.70785 61.9443 14.3293C63.4481 16.8374 63.6409 20.1327 63.4828 22.7055C63.3135 25.4582 62.5064 28.1174 61.7146 30.7593L60.0276 36.387H80.8366C83.3787 36.387 85.2166 38.816 84.5257 41.2623L74.2326 77.7086C73.7663 79.3599 72.2594 80.5001 70.5436 80.5001H37.9859C35.8688 80.5001 34.1526 78.7839 34.1526 76.6667V39.0512Z" stroke="#1A237E" stroke-width="9" stroke-linecap="round" stroke-linejoin="round"/>
</svg>
